<svg preserveAspectRatio="none" width="596" height="224" viewBox="0 0 596 224" fill="none" xmlns="http://www.w3.org/2000/svg">
<path d="M43.8713 224C38.7513 224 34.6979 222.613 31.7113 219.84C28.9379 216.853 27.5513 212.8 27.5513 207.68V-1.52588e-05H116.191C131.551 -1.52588e-05 145.098 2.98665 156.831 8.95998C168.565 14.9333 177.631 23.36 184.031 34.24C190.431 45.12 193.631 57.6 193.631 71.68V145.6C193.631 171.413 187.125 190.933 174.111 204.16C161.311 217.387 142.431 224 117.471 224H43.8713ZM117.151 208C136.565 208 151.178 202.773 160.991 192.32C171.018 181.653 176.031 166.08 176.031 145.6V71.68C176.031 54.8267 170.485 41.28 159.391 31.04C148.511 20.8 134.005 15.68 115.871 15.68H45.1513V208H117.151ZM257.309 224C252.189 224 248.135 222.507 245.149 219.52C242.375 216.533 240.989 212.373 240.989 207.04V-1.52588e-05H385.309V15.36H258.589V101.76H375.709V117.12H258.589V208.32H385.309V224H257.309ZM489.876 109.76L413.396 -1.52588e-05H433.556L499.796 95.04L566.036 -1.52588e-05H585.876L509.716 109.76L589.076 224H569.236L499.796 124.16L430.356 224H410.196L489.876 109.76Z" fill="#E4E4E4"/>
</svg>
