<svg preserveAspectRatio="none" width="433" height="48" viewBox="0 0 433 48" fill="none" xmlns="http://www.w3.org/2000/svg">
<path d="M4.624 0.399997H11.832L27.88 29.776L43.52 0.399997H50.728V48H42.908V15.156L31.688 35.964C31.0533 37.052 30.4413 37.8453 29.852 38.344C29.2627 38.7973 28.6053 39.024 27.88 39.024H25.636L12.376 15.156V48H4.624V0.399997ZM70.1388 48.544C66.6935 48.544 63.9055 47.6827 61.7748 45.96C59.6895 44.192 58.6468 41.8573 58.6468 38.956V36.508C58.6468 33.652 59.7348 31.3627 61.9108 29.64C64.1321 27.9173 67.0335 27.056 70.6148 27.056H74.8308C76.1001 27.056 77.4601 27.2373 78.9108 27.6C80.3615 27.9627 81.6535 28.4387 82.7868 29.028V24.812C82.7868 23.4067 82.3335 22.2733 81.4268 21.412C80.5201 20.5507 79.3415 20.12 77.8908 20.12H72.1788C70.6828 20.12 69.4815 20.4827 68.5748 21.208C67.6681 21.888 67.2148 22.7947 67.2148 23.928H59.5988C59.5988 20.8 60.7548 18.284 63.0668 16.38C65.3788 14.476 68.4161 13.524 72.1788 13.524H77.8908C81.6988 13.524 84.7588 14.5667 87.0708 16.652C89.3828 18.692 90.5388 21.412 90.5388 24.812V48H83.2628V43.716C82.1748 45.1667 80.8148 46.3453 79.1828 47.252C77.5508 48.1133 75.9415 48.544 74.3548 48.544H70.1388ZM74.8308 42.424C76.6441 42.424 78.2761 41.9253 79.7268 40.928C81.1775 39.8853 82.1975 38.5253 82.7868 36.848V35.216C82.0161 34.5813 80.9281 34.0827 79.5228 33.72C78.1175 33.312 76.6441 33.108 75.1028 33.108H70.8188C69.4588 33.108 68.3481 33.448 67.4868 34.128C66.6708 34.808 66.2628 35.692 66.2628 36.78V38.684C66.2628 39.8173 66.6935 40.724 67.5548 41.404C68.4161 42.084 69.5495 42.424 70.9548 42.424H74.8308ZM98.8481 14.068H106.124V18.488C107.121 16.992 108.436 15.7907 110.068 14.884C111.7 13.9773 113.332 13.524 114.964 13.524H119.18C122.671 13.524 125.459 14.6347 127.544 16.856C129.675 19.0773 130.74 22.0013 130.74 25.628V48H122.92V25.832C122.92 24.2 122.489 22.8853 121.628 21.888C120.812 20.8453 119.724 20.324 118.364 20.324H114.148C112.38 20.324 110.793 21.004 109.388 22.364C107.983 23.6787 107.076 25.3787 106.668 27.464V48H98.8481V14.068ZM153.372 48C149.519 48 146.708 47.1387 144.94 45.416C143.172 43.6933 142.288 40.9733 142.288 37.256V20.8H136.304V14.068H142.492V3.8H150.108V14.068H158.948V20.8H150.108V36.984C150.108 38.48 150.403 39.568 150.992 40.248C151.581 40.928 152.511 41.268 153.78 41.268H158.948V48H153.372ZM166.317 0.399997H174.137V17.876C175.18 16.5613 176.449 15.5187 177.945 14.748C179.486 13.932 180.982 13.524 182.433 13.524H186.785C190.276 13.524 193.064 14.6347 195.149 16.856C197.28 19.0773 198.345 22.0013 198.345 25.628V48H190.525V25.832C190.525 24.2 190.094 22.8853 189.233 21.888C188.417 20.8453 187.329 20.324 185.969 20.324H181.617C179.849 20.324 178.262 20.9813 176.857 22.296C175.452 23.6107 174.545 25.3333 174.137 27.464V48H166.317V0.399997ZM217.029 48.544C213.584 48.544 210.796 47.6827 208.665 45.96C206.58 44.192 205.537 41.8573 205.537 38.956V36.508C205.537 33.652 206.625 31.3627 208.801 29.64C211.023 27.9173 213.924 27.056 217.505 27.056H221.721C222.991 27.056 224.351 27.2373 225.801 27.6C227.252 27.9627 228.544 28.4387 229.677 29.028V24.812C229.677 23.4067 229.224 22.2733 228.317 21.412C227.411 20.5507 226.232 20.12 224.781 20.12H219.069C217.573 20.12 216.372 20.4827 215.465 21.208C214.559 21.888 214.105 22.7947 214.105 23.928H206.489C206.489 20.8 207.645 18.284 209.957 16.38C212.269 14.476 215.307 13.524 219.069 13.524H224.781C228.589 13.524 231.649 14.5667 233.961 16.652C236.273 18.692 237.429 21.412 237.429 24.812V48H230.153V43.716C229.065 45.1667 227.705 46.3453 226.073 47.252C224.441 48.1133 222.832 48.544 221.245 48.544H217.029ZM221.721 42.424C223.535 42.424 225.167 41.9253 226.617 40.928C228.068 39.8853 229.088 38.5253 229.677 36.848V35.216C228.907 34.5813 227.819 34.0827 226.413 33.72C225.008 33.312 223.535 33.108 221.993 33.108H217.709C216.349 33.108 215.239 33.448 214.377 34.128C213.561 34.808 213.153 35.692 213.153 36.78V38.684C213.153 39.8173 213.584 40.724 214.445 41.404C215.307 42.084 216.44 42.424 217.845 42.424H221.721ZM245.739 14.068H253.015V18.488C254.012 16.992 255.327 15.7907 256.959 14.884C258.591 13.9773 260.223 13.524 261.855 13.524H266.071C269.561 13.524 272.349 14.6347 274.435 16.856C276.565 19.0773 277.631 22.0013 277.631 25.628V48H269.811V25.832C269.811 24.2 269.38 22.8853 268.519 21.888C267.703 20.8453 266.615 20.324 265.255 20.324H261.039C259.271 20.324 257.684 21.004 256.279 22.364C254.873 23.6787 253.967 25.3787 253.559 27.464V48H245.739V14.068ZM311.027 48C309.259 48 307.831 47.4787 306.743 46.436C305.7 45.3933 305.179 44.0107 305.179 42.288V0.399997H326.871C330.407 0.399997 333.512 1.08 336.187 2.44C338.907 3.75466 340.992 5.636 342.443 8.084C343.939 10.532 344.687 13.3653 344.687 16.584V30.456C344.687 36.2133 343.191 40.588 340.199 43.58C337.252 46.5267 332.9 48 327.143 48H311.027ZM326.939 40.996C330.157 40.996 332.583 40.0893 334.215 38.276C335.892 36.4173 336.731 33.72 336.731 30.184V16.856C336.731 14.0453 335.801 11.7787 333.943 10.056C332.084 8.288 329.659 7.404 326.667 7.404H313.135V40.996H326.939ZM358.175 48C356.407 48 354.979 47.4787 353.891 46.436C352.848 45.348 352.327 43.9427 352.327 42.22V0.399997H387.211V7.268H360.283V20.188H385.171V27.124H360.283V41.132H387.211V48H358.175ZM406.737 23.724L390.757 0.399997H399.733L411.293 17.196L422.853 0.399997H431.761L415.781 23.724L432.441 48H423.465L411.293 30.184L399.053 48H390.077L406.737 23.724Z" fill="white"/>
</svg>
